<svg viewBox="560.8236 369.4544 408.3528 94.0912" width="5000" height="1152.0822191007383" xmlns="http://www.w3.org/2000/svg" xmlns:xlink="http://www.w3.org/1999/xlink" preserveAspectRatio="none"><defs></defs><style>.a6izo4zJpcolor {fill:#ffd700;fill-opacity:1;}.aD6z1nYkhcolor {fill:#ffd700;fill-opacity:1;}.ahMFxawHnEcolors-0 {fill:#3FAFDF;fill-opacity:1;}.ahMFxawHnEcolors-1 {fill:#ffd700;fill-opacity:1;}</style><g opacity="1" transform="rotate(0 712.2606 437.9997)">
<svg width="256.9158" height="14.1476" x="712.2606" y="437.9997" version="1.1" preserveAspectRatio="none" viewBox="4.56 -29.88 687.1600000000001 37.84">
  <g transform="matrix(1 0 0 1 0 0)" class="a6izo4zJpcolor"><path d="M4.56 0L4.56-28L15.96-28Q20.40-28 23.80-26.22Q27.20-24.44 29.08-21.26Q30.96-18.08 30.96-14L30.96-14Q30.96-9.92 29.08-6.74Q27.20-3.56 23.80-1.78Q20.40 0 15.96 0L15.96 0L4.56 0ZM7.52-2.56L15.80-2.56Q19.48-2.56 22.24-4.02Q25-5.48 26.52-8.06Q28.04-10.64 28.04-14L28.04-14Q28.04-17.36 26.52-19.94Q25-22.52 22.24-23.98Q19.48-25.44 15.80-25.44L15.80-25.44L7.52-25.44L7.52-2.56Z M41 0L41-21.04L43.84-21.04L43.84 0L41 0ZM42.44-25.64Q41.56-25.64 40.96-26.24Q40.36-26.84 40.36-27.68L40.36-27.68Q40.36-28.48 40.96-29.08Q41.56-29.68 42.44-29.68L42.44-29.68Q43.32-29.68 43.92-29.10Q44.52-28.52 44.52-27.72L44.52-27.72Q44.52-26.84 43.92-26.24Q43.32-25.64 42.44-25.64L42.44-25.64Z M72.52-21.04L75.24-21.04L75.24-2.56Q75.24 2.80 72.62 5.38Q70 7.96 64.72 7.96L64.72 7.96Q61.80 7.96 59.18 7.10Q56.56 6.24 54.92 4.72L54.92 4.72L56.36 2.56Q57.88 3.92 60.06 4.68Q62.24 5.44 64.64 5.44L64.64 5.44Q68.64 5.44 70.52 3.58Q72.40 1.72 72.40-2.20L72.40-2.20L72.40-4.88Q71.08-2.88 68.94-1.84Q66.80-0.80 64.20-0.80L64.20-0.80Q61.24-0.80 58.82-2.10Q56.40-3.40 55.02-5.74Q53.64-8.08 53.64-11.04L53.64-11.04Q53.64-14 55.02-16.32Q56.40-18.64 58.80-19.92Q61.20-21.20 64.20-21.20L64.20-21.20Q66.88-21.20 69.04-20.12Q71.20-19.04 72.52-17L72.52-17L72.52-21.04ZM64.48-3.32Q66.76-3.32 68.60-4.30Q70.44-5.28 71.46-7.04Q72.48-8.80 72.48-11.04L72.48-11.04Q72.48-13.28 71.46-15.02Q70.44-16.76 68.62-17.74Q66.80-18.72 64.48-18.72L64.48-18.72Q62.20-18.72 60.38-17.76Q58.56-16.80 57.54-15.04Q56.52-13.28 56.52-11.04L56.52-11.04Q56.52-8.80 57.54-7.04Q58.56-5.28 60.38-4.30Q62.20-3.32 64.48-3.32L64.48-3.32Z M87.20 0L87.20-21.04L90.04-21.04L90.04 0L87.20 0ZM88.64-25.64Q87.76-25.64 87.16-26.24Q86.56-26.84 86.56-27.68L86.56-27.68Q86.56-28.48 87.16-29.08Q87.76-29.68 88.64-29.68L88.64-29.68Q89.52-29.68 90.12-29.10Q90.72-28.52 90.72-27.72L90.72-27.72Q90.72-26.84 90.12-26.24Q89.52-25.64 88.64-25.64L88.64-25.64Z M112.04-3.32L113.04-1.28Q112.24-0.56 111.06-0.18Q109.88 0.20 108.60 0.20L108.60 0.20Q105.64 0.20 104.04-1.40Q102.44-3 102.44-5.92L102.44-5.92L102.44-18.64L98.68-18.64L98.68-21.04L102.44-21.04L102.44-25.64L105.28-25.64L105.28-21.04L111.68-21.04L111.68-18.64L105.28-18.64L105.28-6.08Q105.28-4.20 106.22-3.22Q107.16-2.24 108.92-2.24L108.92-2.24Q109.80-2.24 110.62-2.52Q111.44-2.80 112.04-3.32L112.04-3.32Z M129.56-21.20Q133.68-21.20 135.88-19.14Q138.08-17.08 138.08-13.04L138.08-13.04L138.08 0L135.36 0L135.36-3.28Q134.40-1.64 132.54-0.72Q130.68 0.20 128.12 0.20L128.12 0.20Q124.60 0.20 122.52-1.48Q120.44-3.16 120.44-5.92L120.44-5.92Q120.44-8.60 122.38-10.24Q124.32-11.88 128.56-11.88L128.56-11.88L135.24-11.88L135.24-13.16Q135.24-15.88 133.72-17.30Q132.20-18.72 129.28-18.72L129.28-18.72Q127.28-18.72 125.44-18.06Q123.60-17.40 122.28-16.24L122.28-16.24L121.00-18.36Q122.60-19.72 124.84-20.46Q127.08-21.20 129.56-21.20L129.56-21.20ZM128.56-2.04Q130.96-2.04 132.68-3.14Q134.40-4.24 135.24-6.32L135.24-6.32L135.24-9.76L128.64-9.76Q123.24-9.76 123.24-6L123.24-6Q123.24-4.16 124.64-3.10Q126.04-2.04 128.56-2.04L128.56-2.04Z M149.80 0L149.80-29.68L152.64-29.68L152.64 0L149.80 0Z M191.80 0.24Q187.64 0.24 184.30-1.60Q180.96-3.44 179.06-6.70Q177.16-9.96 177.16-14L177.16-14Q177.16-18.04 179.06-21.30Q180.96-24.56 184.32-26.40Q187.68-28.24 191.84-28.24L191.84-28.24Q194.96-28.24 197.60-27.20Q200.24-26.16 202.08-24.16L202.08-24.16L200.20-22.28Q196.92-25.60 191.92-25.60L191.92-25.60Q188.60-25.60 185.88-24.08Q183.16-22.56 181.62-19.92Q180.08-17.28 180.08-14L180.08-14Q180.08-10.72 181.62-8.08Q183.16-5.44 185.88-3.92Q188.60-2.40 191.92-2.40L191.92-2.40Q196.96-2.40 200.20-5.76L200.20-5.76L202.08-3.88Q200.24-1.88 197.58-0.82Q194.92 0.24 191.80 0.24L191.80 0.24Z M211.80 0L211.80-29.68L214.64-29.68L214.64 0L211.80 0Z M235.16 0.20Q232.12 0.20 229.68-1.18Q227.24-2.56 225.84-5Q224.44-7.44 224.44-10.52L224.44-10.52Q224.44-13.60 225.84-16.04Q227.24-18.48 229.68-19.84Q232.12-21.20 235.16-21.20L235.16-21.20Q238.20-21.20 240.64-19.84Q243.08-18.48 244.46-16.04Q245.84-13.60 245.84-10.52L245.84-10.52Q245.84-7.44 244.46-5Q243.08-2.56 240.64-1.18Q238.20 0.20 235.16 0.20L235.16 0.20ZM235.16-2.32Q237.40-2.32 239.18-3.34Q240.96-4.36 241.96-6.24Q242.96-8.12 242.96-10.52L242.96-10.52Q242.96-12.92 241.96-14.80Q240.96-16.68 239.18-17.70Q237.40-18.72 235.16-18.72L235.16-18.72Q232.92-18.72 231.14-17.70Q229.36-16.68 228.34-14.80Q227.32-12.92 227.32-10.52L227.32-10.52Q227.32-8.12 228.34-6.24Q229.36-4.36 231.14-3.34Q232.92-2.32 235.16-2.32L235.16-2.32Z M271.76-21.04L274.60-21.04L274.60 0L271.88 0L271.88-3.84Q270.76-1.92 268.80-0.86Q266.84 0.20 264.32 0.20L264.32 0.20Q260.20 0.20 257.82-2.10Q255.44-4.40 255.44-8.84L255.44-8.84L255.44-21.04L258.28-21.04L258.28-9.12Q258.28-5.80 259.92-4.08Q261.56-2.36 264.60-2.36L264.60-2.36Q267.92-2.36 269.84-4.38Q271.76-6.40 271.76-10L271.76-10L271.76-21.04Z M302.92-29.68L305.76-29.68L305.76 0L303.04 0L303.04-4.16Q301.76-2.04 299.66-0.92Q297.56 0.20 294.92 0.20L294.92 0.20Q291.96 0.20 289.56-1.16Q287.16-2.52 285.80-4.96Q284.44-7.40 284.44-10.52L284.44-10.52Q284.44-13.64 285.80-16.08Q287.16-18.52 289.56-19.86Q291.96-21.20 294.92-21.20L294.92-21.20Q297.48-21.20 299.54-20.14Q301.60-19.08 302.92-17.04L302.92-17.04L302.92-29.68ZM295.16-2.32Q297.36-2.32 299.14-3.34Q300.92-4.36 301.94-6.24Q302.96-8.12 302.96-10.52L302.96-10.52Q302.96-12.92 301.94-14.80Q300.92-16.68 299.14-17.70Q297.36-18.72 295.16-18.72L295.16-18.72Q292.92-18.72 291.14-17.70Q289.36-16.68 288.34-14.80Q287.32-12.92 287.32-10.52L287.32-10.52Q287.32-8.12 288.34-6.24Q289.36-4.36 291.14-3.34Q292.92-2.32 295.16-2.32L295.16-2.32Z M338.20 0L338.20-25.44L328.36-25.44L328.36-28L351-28L351-25.44L341.16-25.44L341.16 0L338.20 0Z M361.28-16.92Q362.28-19.04 364.26-20.12Q366.24-21.20 369.16-21.20L369.16-21.20L369.16-18.44L368.48-18.48Q365.16-18.48 363.28-16.44Q361.40-14.40 361.40-10.72L361.40-10.72L361.40 0L358.56 0L358.56-21.04L361.28-21.04L361.28-16.92Z M385.60-21.20Q389.72-21.20 391.92-19.14Q394.12-17.08 394.12-13.04L394.12-13.04L394.12 0L391.40 0L391.40-3.28Q390.44-1.64 388.58-0.72Q386.72 0.20 384.16 0.20L384.16 0.20Q380.64 0.20 378.56-1.48Q376.48-3.16 376.48-5.92L376.48-5.92Q376.48-8.60 378.42-10.24Q380.36-11.88 384.60-11.88L384.60-11.88L391.28-11.88L391.28-13.16Q391.28-15.88 389.76-17.30Q388.24-18.72 385.32-18.72L385.32-18.72Q383.32-18.72 381.48-18.06Q379.64-17.40 378.32-16.24L378.32-16.24L377.04-18.36Q378.64-19.72 380.88-20.46Q383.12-21.20 385.60-21.20L385.60-21.20ZM384.60-2.04Q387-2.04 388.72-3.14Q390.44-4.24 391.28-6.32L391.28-6.32L391.28-9.76L384.68-9.76Q379.28-9.76 379.28-6L379.28-6Q379.28-4.16 380.68-3.10Q382.08-2.04 384.60-2.04L384.60-2.04Z M416.56-21.20Q420.52-21.20 422.86-18.90Q425.20-16.60 425.20-12.20L425.20-12.20L425.20 0L422.36 0L422.36-11.92Q422.36-15.20 420.72-16.92Q419.08-18.64 416.04-18.64L416.04-18.64Q412.64-18.64 410.66-16.62Q408.68-14.60 408.68-11.04L408.68-11.04L408.68 0L405.84 0L405.84-21.04L408.56-21.04L408.56-17.16Q409.72-19.08 411.78-20.14Q413.84-21.20 416.56-21.20L416.56-21.20Z M442.56 0.20Q440 0.20 437.66-0.54Q435.32-1.28 434-2.40L434-2.40L435.28-4.64Q436.60-3.60 438.60-2.94Q440.60-2.28 442.76-2.28L442.76-2.28Q445.64-2.28 447.02-3.18Q448.40-4.08 448.40-5.72L448.40-5.72Q448.40-6.88 447.64-7.54Q446.88-8.20 445.72-8.54Q444.56-8.88 442.64-9.20L442.64-9.20Q440.08-9.68 438.52-10.18Q436.96-10.68 435.86-11.88Q434.76-13.08 434.76-15.20L434.76-15.20Q434.76-17.84 436.96-19.52Q439.16-21.20 443.08-21.20L443.08-21.20Q445.12-21.20 447.16-20.66Q449.20-20.12 450.52-19.24L450.52-19.24L449.28-16.96Q446.68-18.76 443.08-18.76L443.08-18.76Q440.36-18.76 438.98-17.80Q437.60-16.84 437.60-15.28L437.60-15.28Q437.60-14.08 438.38-13.36Q439.16-12.64 440.32-12.30Q441.48-11.96 443.52-11.60L443.52-11.60Q446.04-11.12 447.56-10.64Q449.08-10.16 450.16-9Q451.24-7.84 451.24-5.80L451.24-5.80Q451.24-3.04 448.94-1.42Q446.64 0.20 442.56 0.20L442.56 0.20Z M467.44-27.48Q465.60-27.48 464.66-26.48Q463.72-25.48 463.72-23.52L463.72-23.52L463.72-21.04L470.20-21.04L470.20-18.64L463.80-18.64L463.80 0L460.96 0L460.96-18.64L457.20-18.64L457.20-21.04L460.96-21.04L460.96-23.64Q460.96-26.52 462.62-28.20Q464.28-29.88 467.32-29.88L467.32-29.88Q468.52-29.88 469.64-29.54Q470.76-29.20 471.52-28.56L471.52-28.56L470.56-26.44Q469.32-27.48 467.44-27.48L467.44-27.48Z M486.28 0.20Q483.24 0.20 480.80-1.18Q478.36-2.56 476.96-5Q475.56-7.44 475.56-10.52L475.56-10.52Q475.56-13.60 476.96-16.04Q478.36-18.48 480.80-19.84Q483.24-21.20 486.28-21.20L486.28-21.20Q489.32-21.20 491.76-19.84Q494.20-18.48 495.58-16.04Q496.96-13.60 496.96-10.52L496.96-10.52Q496.96-7.44 495.58-5Q494.20-2.56 491.76-1.18Q489.32 0.20 486.28 0.20L486.28 0.20ZM486.28-2.32Q488.52-2.32 490.30-3.34Q492.08-4.36 493.08-6.24Q494.08-8.12 494.08-10.52L494.08-10.52Q494.08-12.92 493.08-14.80Q492.08-16.68 490.30-17.70Q488.52-18.72 486.28-18.72L486.28-18.72Q484.04-18.72 482.26-17.70Q480.48-16.68 479.46-14.80Q478.44-12.92 478.44-10.52L478.44-10.52Q478.44-8.12 479.46-6.24Q480.48-4.36 482.26-3.34Q484.04-2.32 486.28-2.32L486.28-2.32Z M509.48-16.92Q510.48-19.04 512.46-20.12Q514.44-21.20 517.36-21.20L517.36-21.20L517.36-18.44L516.68-18.48Q513.36-18.48 511.48-16.44Q509.60-14.40 509.60-10.72L509.60-10.72L509.60 0L506.76 0L506.76-21.04L509.48-21.04L509.48-16.92Z M552.72-21.20Q556.68-21.20 558.94-18.92Q561.20-16.64 561.20-12.20L561.20-12.20L561.20 0L558.36 0L558.36-11.92Q558.36-15.20 556.78-16.92Q555.20-18.64 552.32-18.64L552.32-18.64Q549.04-18.64 547.16-16.62Q545.28-14.60 545.28-11.04L545.28-11.04L545.28 0L542.44 0L542.44-11.92Q542.44-15.20 540.86-16.92Q539.28-18.64 536.36-18.64L536.36-18.64Q533.12-18.64 531.22-16.62Q529.32-14.60 529.32-11.04L529.32-11.04L529.32 0L526.48 0L526.48-21.04L529.20-21.04L529.20-17.20Q530.32-19.12 532.32-20.16Q534.32-21.20 536.92-21.20L536.92-21.20Q539.56-21.20 541.50-20.08Q543.44-18.96 544.40-16.76L544.40-16.76Q545.56-18.84 547.74-20.02Q549.92-21.20 552.72-21.20L552.72-21.20Z M580.28-21.20Q584.40-21.20 586.60-19.14Q588.80-17.08 588.80-13.04L588.80-13.04L588.80 0L586.08 0L586.08-3.28Q585.12-1.64 583.26-0.72Q581.40 0.20 578.84 0.20L578.84 0.20Q575.32 0.20 573.24-1.48Q571.16-3.16 571.16-5.92L571.16-5.92Q571.16-8.60 573.10-10.24Q575.04-11.88 579.28-11.88L579.28-11.88L585.96-11.88L585.96-13.16Q585.96-15.88 584.44-17.30Q582.92-18.72 580.00-18.72L580.00-18.72Q578.00-18.72 576.16-18.06Q574.32-17.40 573.00-16.24L573.00-16.24L571.72-18.36Q573.32-19.72 575.56-20.46Q577.80-21.20 580.28-21.20L580.28-21.20ZM579.28-2.04Q581.68-2.04 583.40-3.14Q585.12-4.24 585.96-6.32L585.96-6.32L585.96-9.76L579.36-9.76Q573.96-9.76 573.96-6L573.96-6Q573.96-4.16 575.36-3.10Q576.76-2.04 579.28-2.04L579.28-2.04Z M610.60-3.32L611.60-1.28Q610.80-0.56 609.62-0.18Q608.44 0.20 607.16 0.20L607.16 0.20Q604.20 0.20 602.60-1.40Q601.00-3 601.00-5.92L601.00-5.92L601.00-18.64L597.24-18.64L597.24-21.04L601.00-21.04L601.00-25.64L603.84-25.64L603.84-21.04L610.24-21.04L610.24-18.64L603.84-18.64L603.84-6.08Q603.84-4.20 604.78-3.22Q605.72-2.24 607.48-2.24L607.48-2.24Q608.36-2.24 609.18-2.52Q610.00-2.80 610.60-3.32L610.60-3.32Z M620.76 0L620.76-21.04L623.60-21.04L623.60 0L620.76 0ZM622.20-25.64Q621.32-25.64 620.72-26.24Q620.12-26.84 620.12-27.68L620.12-27.68Q620.12-28.48 620.72-29.08Q621.32-29.68 622.20-29.68L622.20-29.68Q623.08-29.68 623.68-29.10Q624.28-28.52 624.28-27.72L624.28-27.72Q624.28-26.84 623.68-26.24Q623.08-25.64 622.20-25.64L622.20-25.64Z M644.12 0.20Q641.08 0.20 638.64-1.18Q636.20-2.56 634.80-5Q633.40-7.44 633.40-10.52L633.40-10.52Q633.40-13.60 634.80-16.04Q636.20-18.48 638.64-19.84Q641.08-21.20 644.12-21.20L644.12-21.20Q647.16-21.20 649.60-19.84Q652.04-18.48 653.42-16.04Q654.80-13.60 654.80-10.52L654.80-10.52Q654.80-7.44 653.42-5Q652.04-2.56 649.60-1.18Q647.16 0.20 644.12 0.20L644.12 0.20ZM644.12-2.32Q646.36-2.32 648.14-3.34Q649.92-4.36 650.92-6.24Q651.92-8.12 651.92-10.52L651.92-10.52Q651.92-12.92 650.92-14.80Q649.92-16.68 648.14-17.70Q646.36-18.72 644.12-18.72L644.12-18.72Q641.88-18.72 640.10-17.70Q638.32-16.68 637.30-14.80Q636.28-12.92 636.28-10.52L636.28-10.52Q636.28-8.12 637.30-6.24Q638.32-4.36 640.10-3.34Q641.88-2.32 644.12-2.32L644.12-2.32Z M675.32-21.20Q679.28-21.20 681.62-18.90Q683.96-16.60 683.96-12.20L683.96-12.20L683.96 0L681.12 0L681.12-11.92Q681.12-15.20 679.48-16.92Q677.84-18.64 674.80-18.64L674.80-18.64Q671.40-18.64 669.42-16.62Q667.44-14.60 667.44-11.04L667.44-11.04L667.44 0L664.60 0L664.60-21.04L667.32-21.04L667.32-17.16Q668.48-19.08 670.54-20.14Q672.60-21.20 675.32-21.20L675.32-21.20Z"/></g>
</svg>
</g><g opacity="1" transform="rotate(0 712.2606 402.3524)">
<svg width="220.3335" height="28.2952" x="712.2606" y="402.3524" version="1.1" preserveAspectRatio="none" viewBox="1.7773 -27.4805 219.1602 28.1445">
  <g transform="matrix(1 0 0 1 0 0)" class="aD6z1nYkhcolor"><path d="M21.04-12.70L21.04-12.70L21.04-14.02Q21.04-16.09 20.47-18.07L20.47-18.07Q19.26-22.27 15.96-23.73L15.96-23.73Q14.45-24.39 12.68-24.39L12.68-24.39L12.40-24.38Q10.18-24.38 9.90-23.38L9.90-23.38Q9.84-23.16 9.84-17.54L9.84-17.54L9.84-10.04L9.82-9.75Q9.82-9.45 9.82-9.16L9.82-9.16L9.77-7.11Q9.77-6.82 9.77-6.52L9.77-6.52L9.75-5.64L9.75-5.33Q9.75-3.69 10.16-3.16Q10.57-2.64 12.25-2.64L12.25-2.64L13.42-2.64Q15.06-2.64 16.55-3.48Q18.05-4.32 18.93-5.50Q19.80-6.68 20.42-8.60Q21.04-10.53 21.04-12.70ZM2.93-24.43Q1.82-25 1.82-25.79Q1.82-26.58 2.75-26.74L2.75-26.74Q5.39-27.19 11.84-27.19L11.84-27.19L12.87-27.19Q19.69-27.19 23.59-23.60Q27.50-20.02 27.50-13.75Q27.50-7.48 23.59-3.69Q19.69 0.10 13.24 0.10L13.24 0.10L11.70 0.10L11.19 0.08L10.14 0.06Q9.63 0.04 9.14 0.04L9.14 0.04L4.77-0.10Q2.58-0.10 2.18-0.35Q1.78-0.61 1.78-1.35L1.78-1.35Q1.78-1.78 2.91-2.53Q4.04-3.28 4.34-4.32Q4.63-5.35 4.63-11.19L4.63-11.19L4.59-13.69L4.65-16.64L4.67-17.13Q4.69-17.64 4.69-18.13L4.69-18.13L4.73-19.59Q4.73-22.25 4.32-23.22L4.32-23.22Q4.04-23.87 2.93-24.43Z M40.08-17.05Q42.34-18.61 43.95-18.61Q45.55-18.61 46.12-17.93Q46.70-17.25 46.70-16.29Q46.70-15.33 46.18-14.58Q45.66-13.83 45.01-13.83Q44.36-13.83 43.20-14.34Q42.05-14.84 41.43-14.84Q40.80-14.84 40.02-14.18Q39.24-13.52 38.94-12.29Q38.63-11.05 38.63-8.43Q38.63-5.80 39.00-5.03Q39.38-4.26 40.53-3.01Q41.68-1.76 41.68-0.96L41.68-0.96Q41.68-0.02 37.15-0.02L37.15-0.02L35.47-0.02L35.06-0.04Q34.65-0.06 34.22-0.06L34.22-0.06L33.81-0.08Q33.40-0.10 32.95-0.10L32.95-0.10Q30.90-0.10 30.90-0.98Q30.90-1.86 31.92-2.75Q32.95-3.65 33.17-4.38Q33.40-5.10 33.40-9.34Q33.40-13.57 33.13-14.41Q32.87-15.25 31.87-15.85Q30.86-16.45 30.86-17.09L30.86-17.09Q30.86-17.99 32.21-18.36L32.21-18.36Q34.24-18.91 35.88-18.91Q37.52-18.91 38.09-18.54L38.09-18.54Q38.32-18.38 38.62-17.54Q38.93-16.70 39.34-16.70L39.34-16.70Q39.51-16.70 40.08-17.05L40.08-17.05Z M58.38-16.66L58.38-16.66L57.81-16.66Q56.58-16.66 55.46-15.38Q54.34-14.10 54.34-12.32L54.34-12.32L54.34-12.01Q54.34-11.29 55.14-11.29L55.14-11.29L55.33-11.25L56.72-11.25L56.82-11.27L60.08-11.46Q60.37-11.52 60.47-11.52L60.47-11.52Q61.46-11.52 61.46-12.56L61.46-12.56L61.46-13.20Q61.46-14.51 60.53-15.59Q59.59-16.66 58.38-16.66ZM54.57-7.36L54.57-7.36Q54.57-5.41 56.41-3.98L56.41-3.98Q57.77-2.91 59.88-2.91L59.88-2.91Q60.84-2.91 62.72-3.46Q64.61-4.00 64.90-4.00L64.90-4.00Q65.78-4.00 65.78-3.05L65.78-3.05Q65.78-1.91 63.45-0.75Q61.11 0.41 58.61 0.41L58.61 0.41L57.75 0.41Q57.71 0.41 57.66 0.41L57.66 0.41Q56.07 0.41 54.43-0.23L54.43-0.23Q51.19-1.48 49.82-4.61L49.82-4.61Q48.89-6.76 48.89-8.69L48.89-8.69L48.89-9.59Q48.89-11.56 49.57-13.40L49.57-13.40Q50.86-16.86 54.12-18.38L54.12-18.38Q56.07-19.28 58.22-19.28L58.22-19.28L58.67-19.28Q61.86-19.28 64.04-17.30L64.04-17.30Q65.20-16.25 65.81-14.77Q66.43-13.28 66.43-11.75Q66.43-10.21 64.92-9.73L64.92-9.73Q62.81-9.04 57.11-9.04L57.11-9.04Q55.59-9.04 55.08-8.66Q54.57-8.28 54.57-7.36Z M80.61-7.99L80.61-7.99Q80.61-8.87 80.06-8.87L80.06-8.87L79.55-8.87Q79.06-8.77 78.81-8.77L78.81-8.77Q77.03-8.77 75.82-7.73Q74.61-6.70 74.61-5.39L74.61-5.39L74.61-4.94Q74.61-3.95 75.23-3.22Q75.86-2.50 76.76-2.50L76.76-2.50L77.38-2.50Q78.67-2.50 79.59-3.30Q80.51-4.10 80.51-4.86L80.51-4.86Q80.59-5.25 80.59-5.37L80.59-5.37L80.63-5.68L80.63-6.52L80.64-6.84L80.64-7.70Q80.61-7.89 80.61-7.99ZM88.54-1.80L88.54-1.80L88.54-1.50Q88.54-0.84 87.07-0.26Q85.61 0.31 83.59 0.31L83.59 0.31Q82.36 0.31 81.46-0.80L81.46-0.80Q80.98-1.43 80.70-1.43L80.70-1.43Q80.43-1.45 79.77-0.98L79.77-0.98Q77.54 0.55 74.96 0.55L74.96 0.55Q74.94 0.55 74.92 0.57L74.92 0.57Q72.38 0.57 70.86-0.74Q69.34-2.05 69.32-4.41L69.32-4.41Q69.32-9.49 77.13-10.80L77.13-10.80Q79.00-11.09 79.38-11.25L79.38-11.25Q80.51-11.72 80.51-13.34Q80.51-14.96 79.78-15.67Q79.04-16.39 78.07-16.39L78.07-16.39Q76.52-16.39 75.27-14.74Q74.02-13.09 72.36-13.09L72.36-13.09Q71.39-13.09 70.89-13.62Q70.39-14.16 70.39-14.73L70.39-14.73Q70.39-16.45 72.19-17.46L72.19-17.46Q75.18-19.14 78.52-19.14L78.52-19.14L79.53-19.14Q81.21-19.14 82.74-18.43Q84.28-17.71 85.12-16.25Q85.96-14.79 85.96-9.71Q85.96-4.63 86.28-3.86Q86.60-3.09 87.57-2.72Q88.54-2.36 88.54-1.80Z M124.47-1.80L124.47-1.80Q124.47 0.02 119.30 0.02L119.30 0.02Q117.60 0.02 116.95-0.38Q116.31-0.78 116.31-1.78L116.31-1.78L116.56-3.03Q116.93-5 116.93-9.03Q116.93-13.07 116.25-14.38Q115.57-15.70 113.55-15.70L113.55-15.70Q112.87-15.70 112.07-15.17Q111.27-14.63 110.87-13.71Q110.47-12.79 110.47-8.97Q110.47-5.16 110.69-4.43Q110.92-3.71 111.70-2.69Q112.48-1.66 112.48-1.08Q112.48-0.51 111.73-0.25Q110.98 0 107.77 0Q104.57 0 104.07-0.33Q103.57-0.66 103.57-1.54L103.57-1.54Q103.57-1.84 104.23-2.69Q104.88-3.54 105.07-4.24Q105.25-4.94 105.25-8.75Q105.25-12.56 104.63-14.04Q104.00-15.53 102.34-15.53Q100.68-15.53 99.53-14.00L99.53-14.00Q98.73-12.95 98.73-11.07Q98.73-9.20 98.91-6.70Q99.08-4.20 99.30-3.18Q99.51-2.17 99.51-1.46Q99.51-0.76 98.89-0.38Q98.26 0 95.92 0L95.92 0Q91.39 0 91.39-1.64L91.39-1.64Q91.39-2.17 92.27-3.15Q93.14-4.14 93.26-4.58Q93.38-5.02 93.38-8.87Q93.38-12.71 92.87-14.18L92.87-14.18Q92.73-14.55 92.10-15.56Q91.46-16.56 91.46-17.09L91.46-17.09Q91.46-17.83 92.71-18.20L92.71-18.20Q94.94-18.87 96.68-18.87L96.68-18.87Q97.25-18.87 98.05-18.04Q98.85-17.21 99.06-17.21L99.06-17.21L99.69-17.56Q100.84-18.22 101.17-18.38L101.17-18.38Q102.97-19.20 104.57-19.20Q106.17-19.20 106.95-18.85Q107.73-18.50 108.65-17.83Q109.57-17.17 110.03-17.17Q110.49-17.17 112.56-18.13Q114.63-19.08 116.43-19.08L116.43-19.08Q119.67-19.08 121.19-16.21L121.19-16.21Q122.21-14.34 122.21-6.31L122.21-6.31Q122.21-4.28 122.43-3.82Q122.66-3.36 123.56-2.72Q124.47-2.09 124.47-1.80Z M147.03-12.48L147.03-12.48L147.03-13.79Q147.03-15.78 146.50-17.97L146.50-17.97Q145.45-22.32 142.79-24.00L142.79-24.00Q141.60-24.75 140.06-24.75L140.06-24.75L139.77-24.75Q138.50-24.75 137.17-23.98L137.17-23.98Q134.59-22.50 133.63-18.75L133.63-18.75Q133.03-16.41 133.03-14.08L133.03-14.08L133.03-13.42Q133.03-11.13 133.61-8.91L133.61-8.91Q134.79-4.51 137.64-2.81L137.64-2.81Q138.81-2.11 140.06-2.11L140.06-2.11L140.64-2.11Q141.97-2.11 143.20-2.88Q144.43-3.65 145.21-4.96L145.21-4.96Q147.03-7.99 147.03-12.48ZM127.40-13.32L127.40-13.32Q127.40-16.45 128.36-19.10L128.36-19.10Q130.21-24.30 134.86-26.31L134.86-26.31Q137.56-27.48 140.37-27.48L140.37-27.48L140.84-27.46L141.29-27.46Q143.55-27.46 146.00-26.43Q148.44-25.39 150.17-23.49Q151.89-21.58 152.79-19.05Q153.69-16.52 153.69-13.93L153.69-13.93L153.69-13.48Q153.69-10.53 152.71-7.84Q151.72-5.16 149.86-3.24L149.86-3.24Q146.11 0.64 139.92 0.66L139.92 0.66Q137.38 0.66 135.03-0.30Q132.68-1.27 131.09-3.01L131.09-3.01Q127.40-7.11 127.40-13.32Z M179.43-1.37L179.43-1.37Q179.43-0.64 178.25-0.30Q177.07 0.04 174.29 0.04Q171.50 0.04 170.96-0.35Q170.41-0.74 170.41-1.28Q170.41-1.82 170.91-2.91Q171.41-4.00 171.52-4.67Q171.64-5.33 171.64-9.16Q171.64-12.99 170.99-14.38Q170.33-15.78 168.42-15.78Q166.50-15.78 165.31-14.12L165.31-14.12Q164.51-13.01 164.51-10.04L164.51-10.04Q164.51-5.14 165.41-2.85L165.41-2.85Q165.96-1.52 165.96-1.13L165.96-1.13Q165.96-0.39 165.06-0.21Q164.16-0.02 161.16-0.02Q158.16-0.02 157.54-0.42Q156.91-0.82 156.91-1.50Q156.91-2.19 157.95-2.87Q158.98-3.55 159.12-4.11Q159.26-4.67 159.26-9.07Q159.26-13.48 158.96-14.23Q158.67-14.98 157.79-15.98Q156.91-16.97 156.91-16.99L156.91-16.99L156.91-17.40Q156.91-17.73 157.40-18.01L157.40-18.01Q159.10-18.98 162.46-18.98L162.46-18.98Q163.40-18.98 164.03-18.07Q164.67-17.15 164.96-17.15Q165.25-17.15 166.34-17.78Q167.42-18.42 167.52-18.46L167.52-18.46Q169.08-19.18 170.43-19.18L170.43-19.18L171.05-19.18Q174.47-19.18 175.94-16.45L175.94-16.45Q176.88-14.67 176.88-7.91L176.88-7.91Q176.88-4.30 177.11-3.79Q177.34-3.28 178.39-2.63Q179.43-1.97 179.43-1.37Z M184.69-0.25L184.69-0.25Q182.19-0.25 182.19-1.05Q182.19-1.86 183.49-2.76Q184.79-3.67 185.08-4.80Q185.37-5.94 185.37-13.76Q185.37-21.58 185.21-22.19L185.21-22.19Q184.86-23.57 183.89-24.26L183.89-24.26Q182.11-25.51 182.11-26.21L182.11-26.21L182.11-26.48Q182.11-27.19 187.03-27.19L187.03-27.19L188.36-27.25L189.69-27.25L190.14-27.23L190.59-27.23Q192.81-27.23 193.29-27.06Q193.77-26.89 193.77-26.05L193.77-26.05Q193.77-25.55 192.32-24.38L192.32-24.38Q191.54-23.73 191.27-22.54Q191.00-21.35 191.00-13.34Q191.00-5.33 191.21-4.45Q191.43-3.57 192.62-2.56Q193.81-1.54 193.81-0.88L193.81-0.88Q193.81-0.10 192.25-0.10L192.25-0.10L190.88-0.10L190.43-0.12L189.51-0.12L188.18-0.16L186.43-0.20L185.57-0.23Q185.14-0.25 184.69-0.25Z M203.98-24.06L203.98-24.06Q202.36-24.06 200.57-22.58L200.57-22.58Q197.70-20.20 197.54-20.20L197.54-20.20Q196.52-20.20 196.52-21.46L196.52-21.46L196.52-22.07Q196.52-24.18 196.88-25.88L196.88-25.88Q197.05-26.76 197.67-26.93Q198.28-27.11 209.41-27.11L209.41-27.11L216.74-27.15L218.03-27.15Q220.14-27.15 220.54-26.46Q220.94-25.78 220.94-23.48L220.94-23.48L220.94-22.23Q220.94-20.16 219.98-20.16L219.98-20.16Q219.14-20.16 217.95-21.50Q216.76-22.85 215.76-23.45Q214.77-24.04 213.14-24.04L213.14-24.04Q211.86-24.04 211.64-22.34L211.64-22.34Q211.56-21.76 211.56-13.62Q211.56-5.49 211.78-4.61Q211.99-3.73 213.38-2.72Q214.77-1.72 214.77-1.03Q214.77-0.33 214.06-0.16Q213.36 0.02 209.51 0.02L209.51 0.02L206.23 0.02Q204.30 0.02 203.58-0.12Q202.87-0.25 202.87-0.90Q202.87-1.54 204.20-2.73Q205.53-3.93 205.76-4.81Q206.00-5.70 206.00-13.67Q206.00-21.64 205.84-22.45Q205.68-23.26 205.30-23.66Q204.92-24.06 203.98-24.06Z"/></g>
</svg>
</g><g opacity="1" transform="rotate(0 560.8236 369.4544)">
<svg width="132.3528" height="94.0912" x="560.8236" y="369.4544" version="1.1" preserveAspectRatio="none" viewBox="35.99999237060547 54.50099563598633 128.00198364257812 90.99810791015624">
  <g transform="matrix(1 0 0 1 0 0)" ><g><path d="M112.861 128.094H58.998C46.317 128.094 36 117.845 36 105.247a22.693 22.693 0 0 1 6.063-15.456 22.986 22.986 0 0 1 12.142-6.889c1.693-7.52 5.78-14.356 11.686-19.467a36.716 36.716 0 0 1 24.028-8.934c3.671 0 7.296.54 10.776 1.604L97.55 66.249a26.044 26.044 0 0 0-7.631-1.134c-12.764 0-23.785 9.443-25.634 21.965-.478 3.233-3.113 5.696-6.408 5.988-6.381.568-11.194 5.804-11.194 12.18 0 6.745 5.524 12.233 12.314 12.233h53.862v10.613z" data-color="1" class="ahMFxawHnEcolors-0"></path><path d="M114.841 126.323l5.435 1.263a.182.182 0 0 1 .128.116.176.176 0 0 1-.012.161l-2.913 4.681a2.445 2.445 0 0 0 .356 3.042l5.173 5.14a2.484 2.484 0 0 0 3.063.357l4.784-2.933a.187.187 0 0 1 .172-.008.177.177 0 0 1 .108.124l1.256 5.327a2.471 2.471 0 0 0 2.426 1.906l7.335-.02a2.474 2.474 0 0 0 2.409-1.894l1.305-5.425c.013-.055.053-.1.147-.139a.182.182 0 0 1 .161.012l4.693 2.869a2.49 2.49 0 0 0 3.058-.357l5.204-5.17a2.449 2.449 0 0 0 .361-3.037l-2.925-4.729c-.03-.048-.035-.106 0-.192a.181.181 0 0 1 .124-.106l5.379-1.28a2.467 2.467 0 0 0 1.907-2.391l.027-7.294a2.459 2.459 0 0 0-1.918-2.412l-5.432-1.263c-.055-.013-.101-.052-.132-.126a.18.18 0 0 1 .012-.161l2.912-4.668a2.445 2.445 0 0 0-.354-3.046l-5.182-5.148a2.486 2.486 0 0 0-3.064-.353l-4.77 2.933a.186.186 0 0 1-.171.01.177.177 0 0 1-.108-.124l-1.26-5.328a2.474 2.474 0 0 0-2.425-1.902l-7.337.02a2.478 2.478 0 0 0-2.408 1.891l-1.31 5.415a.176.176 0 0 1-.105.122l-.047.02a.182.182 0 0 1-.161-.012l-4.684-2.861a2.485 2.485 0 0 0-3.055.359l-5.205 5.17a2.446 2.446 0 0 0-.358 3.038l2.921 4.714a.174.174 0 0 1 .016.151l-.02.048a.18.18 0 0 1-.123.106l-5.38 1.277a2.462 2.462 0 0 0-1.906 2.393l-.02 7.302a2.452 2.452 0 0 0 1.913 2.412zm-.138-9.706a.718.718 0 0 1 .556-.697l5.38-1.277a1.932 1.932 0 0 0 1.343-1.146l.019-.047a1.92 1.92 0 0 0-.146-1.73l-2.922-4.714a.715.715 0 0 1 .105-.886l5.206-5.171a.724.724 0 0 1 .889-.103l4.683 2.86c.531.324 1.19.374 1.807.117a1.937 1.937 0 0 0 1.139-1.327l1.31-5.414a.723.723 0 0 1 .703-.552l7.339-.02c.338 0 .628.228.706.555l1.26 5.328a1.94 1.94 0 0 0 1.174 1.349 1.957 1.957 0 0 0 1.744-.149l4.77-2.933a.737.737 0 0 1 .894.102l5.182 5.148a.712.712 0 0 1 .103.888l-2.913 4.668a1.926 1.926 0 0 0-.134 1.771c.238.573.743.999 1.349 1.14l5.432 1.263a.718.718 0 0 1 .56.703l-.027 7.294a.72.72 0 0 1-.556.698l-5.379 1.28a1.956 1.956 0 0 0-1.356 1.176 1.916 1.916 0 0 0 .142 1.737l2.925 4.728a.715.715 0 0 1-.106.886l-5.204 5.169a.727.727 0 0 1-.893.105l-4.692-2.869a1.974 1.974 0 0 0-1.798-.122 1.934 1.934 0 0 0-1.145 1.331l-1.305 5.425a.721.721 0 0 1-.702.552l-7.337.02a.72.72 0 0 1-.705-.556l-1.256-5.328a1.937 1.937 0 0 0-1.176-1.351 1.945 1.945 0 0 0-1.742.147l-4.784 2.932a.733.733 0 0 1-.893-.103l-5.175-5.141a.712.712 0 0 1-.104-.887l2.913-4.681c.328-.526.38-1.181.156-1.711l-.02-.051a1.942 1.942 0 0 0-1.348-1.137l-5.435-1.263a.72.72 0 0 1-.56-.703l.024-7.303z" data-color="2" class="ahMFxawHnEcolors-1"></path><path d="M138.461 130.323c5.658 0 10.26-4.573 10.26-10.193 0-5.62-4.603-10.193-10.26-10.193-5.658 0-10.261 4.573-10.261 10.193.001 5.62 4.604 10.193 10.261 10.193zm0-18.638c4.687 0 8.501 3.789 8.501 8.445 0 4.656-3.814 8.445-8.501 8.445-4.688 0-8.501-3.788-8.501-8.445s3.814-8.445 8.501-8.445z" data-color="2" class="ahMFxawHnEcolors-1"></path><path d="M114.196 123.561H58.998c-10.165 0-18.435-8.216-18.435-18.314 0-9.545 7.209-17.385 16.769-18.237.463-.041.832-.376.897-.814 1.105-7.481 4.891-14.351 10.659-19.344a32.136 32.136 0 0 1 21.031-7.819c11.42 0 22.06 6.118 27.768 15.966a1.48 1.48 0 0 0 1.025.711c.43.077.868-.036 1.199-.309a13.3 13.3 0 0 1 8.452-3.032c7.296 0 13.231 5.896 13.231 13.144 0 .264-.008.526-.024.786a.6.6 0 0 0 .162.452.583.583 0 0 0 .426.182h3.282c10.165 0 18.435 8.216 18.435 18.314 0 3.231-.859 6.407-2.483 9.185l-1.347-.777a16.675 16.675 0 0 0 2.272-8.407c0-9.245-7.571-16.766-16.877-16.766h-3.282a2.129 2.129 0 0 1-1.56-.669 2.154 2.154 0 0 1-.583-1.607c.014-.229.021-.459.021-.691 0-6.394-5.236-11.596-11.673-11.596-2.72 0-5.368.95-7.456 2.674-.686.566-1.585.8-2.47.643a3.032 3.032 0 0 1-2.1-1.462c-5.431-9.37-15.554-15.19-26.418-15.19a30.572 30.572 0 0 0-20.007 7.438c-5.489 4.75-9.09 11.285-10.141 18.401-.17 1.15-1.115 2.026-2.299 2.132-8.751.779-15.35 7.956-15.35 16.695 0 9.245 7.571 16.766 16.877 16.766h55.198v1.545z" data-color="2" class="ahMFxawHnEcolors-1"></path></g></g>
</svg>
</g></svg>