<svg xmlns="http://www.w3.org/2000/svg" width="50" height="49.902" viewBox="0 0 50 49.902"><path d="M25,0A24.951,24.951,0,1,1,0,24.951,24.988,24.988,0,0,1,25,0ZM20.6,38.222c11.063,0,17.112-9.149,17.112-17.078,0-.261,0-.523-.013-.772A12.306,12.306,0,0,0,40.7,17.26a12.223,12.223,0,0,1-3.455.946,6,6,0,0,0,2.644-3.323,12.2,12.2,0,0,1-3.817,1.456,6.02,6.02,0,0,0-10.4,4.108,5.492,5.492,0,0,0,.162,1.369,17.071,17.071,0,0,1-12.4-6.274,5.992,5.992,0,0,0,1.871,8A5.917,5.917,0,0,1,12.59,22.8v.075a6.012,6.012,0,0,0,4.827,5.888,6.009,6.009,0,0,1-1.584.212,5.747,5.747,0,0,1-1.135-.112,6,6,0,0,0,5.612,4.17A12.1,12.1,0,0,1,12.839,35.6a10.966,10.966,0,0,1-1.434-.087A16.78,16.78,0,0,0,20.6,38.222Z" fill="#fff" fill-rule="evenodd" opacity="0.75"/></svg>