<svg xmlns="http://www.w3.org/2000/svg" width="50" height="49.902" viewBox="0 0 50 49.902"><path d="M25,0A24.951,24.951,0,1,1,0,24.951,24.988,24.988,0,0,1,25,0Zm0,9.357c-4.243,0-4.776.018-6.442.094a11.49,11.49,0,0,0-3.793.725,7.982,7.982,0,0,0-4.57,4.561,11.429,11.429,0,0,0-.726,3.785c-.076,1.663-.094,2.194-.094,6.43s.018,4.766.094,6.43a11.429,11.429,0,0,0,.726,3.785,7.982,7.982,0,0,0,4.57,4.561,11.492,11.492,0,0,0,3.793.725c1.667.076,2.2.094,6.442.094s4.776-.018,6.442-.094a11.491,11.491,0,0,0,3.793-.725,7.982,7.982,0,0,0,4.57-4.561,11.43,11.43,0,0,0,.726-3.785c.076-1.663.094-2.194.094-6.43s-.018-4.766-.094-6.43a11.43,11.43,0,0,0-.726-3.785,7.982,7.982,0,0,0-4.57-4.561,11.488,11.488,0,0,0-3.793-.725C29.776,9.375,29.243,9.357,25,9.357Zm0,2.81c4.172,0,4.666.016,6.314.091a8.661,8.661,0,0,1,2.9.537,5.17,5.17,0,0,1,2.965,2.96,8.612,8.612,0,0,1,.538,2.9c.075,1.644.091,2.138.091,6.3s-.016,4.657-.091,6.3a8.612,8.612,0,0,1-.538,2.9,5.17,5.17,0,0,1-2.965,2.96,8.658,8.658,0,0,1-2.9.537c-1.647.075-2.142.091-6.314.091s-4.666-.016-6.314-.091a8.658,8.658,0,0,1-2.9-.537,5.169,5.169,0,0,1-2.965-2.96,8.614,8.614,0,0,1-.538-2.9c-.075-1.644-.091-2.138-.091-6.3s.016-4.657.091-6.3a8.614,8.614,0,0,1,.538-2.9,5.169,5.169,0,0,1,2.965-2.96,8.661,8.661,0,0,1,2.9-.537c1.648-.075,2.142-.091,6.314-.091Zm0,4.777a8.008,8.008,0,1,0,8.024,8.008A8.016,8.016,0,0,0,25,16.943Zm0,13.206a5.2,5.2,0,1,1,5.208-5.2A5.2,5.2,0,0,1,25,30.149ZM35.216,16.627a1.875,1.875,0,1,1-1.875-1.871A1.873,1.873,0,0,1,35.216,16.627Z" fill="#fff" fill-rule="evenodd" opacity="0.75"/></svg>