<svg xmlns="http://www.w3.org/2000/svg" width="50" height="49.902" viewBox="0 0 50 49.902"><path d="M25,0A24.951,24.951,0,1,1,0,24.951,24.988,24.988,0,0,1,25,0ZM17.184,38.974V19.488H10.693V38.974Zm23.4,0V27.8c0-5.985-3.2-8.77-7.472-8.77a6.448,6.448,0,0,0-5.849,3.217V19.488H20.775c.086,1.828,0,19.485,0,19.485h6.489V28.092a4.42,4.42,0,0,1,.214-1.581,3.551,3.551,0,0,1,3.33-2.368c2.347,0,3.287,1.788,3.287,4.406V38.974h6.489Zm-26.6-28.881a3.377,3.377,0,1,0-.086,6.734h.042a3.378,3.378,0,1,0,.044-6.734Z" fill="#fff" fill-rule="evenodd" opacity="0.75"/></svg>