<svg xmlns="http://www.w3.org/2000/svg" width="50" height="49.902" viewBox="0 0 50 49.902"><path d="M24.9,49.9h0Zm.176,0h0Zm-.253,0h0Zm.333,0h0Zm-.407,0h0Zm.488,0h0Zm.081,0h0Zm-.662,0h0Zm.743,0h0Zm-.821,0h0Zm.9,0h0Zm-.975,0h0Zm-.092,0h0Zm1.147,0h0Zm-1.227,0h0Zm1.308,0h0Zm.08,0h0Zm-1.462,0h0Zm-.07,0h0Zm1.612,0h0Zm.08,0h0Zm-1.794,0h0Zm-.073,0h0Zm1.947,0h0Zm-2.019,0h0Zm2.1,0h0Zm-2.2,0,.037,0h-.037Zm2.28,0h-.009l.037,0h-.028Zm-2.352,0,.038,0h-.038Zm2.432,0h-.018l.038,0Zm-2.5,0,.039,0H23.7Zm2.583,0h-.027l.039,0Zm.08,0-.035,0,.031,0,.037,0-.033,0Zm-2.727,0,.031,0-.035,0-.033,0,.037,0Zm2.807,0H26.43l.04,0Zm-2.914,0,.04,0h-.04Zm-.071,0,.04,0h-.04Zm3.065,0H26.5l.04,0Zm-3.132-.005.036,0-.033,0-.033,0,.031,0Zm3.212,0-.033,0,.036,0,.031,0-.033,0Zm.079-.005h-.012l.038,0-.026,0Zm-3.394,0,.038,0h-.012Zm-.07,0,.037,0H23.22Zm3.544,0h-.02l.037,0Zm-3.614-.006.034,0-.026,0h-.008Zm3.694,0-.026,0,.034,0h-.008Zm-3.788-.008.03,0h-.007Zm3.867,0h-.007l.03,0ZM27,49.824h-.014l.03,0Zm-4.019,0,.03,0h-.03Zm-.071-.006.026,0h-.026Zm4.169,0h-.018l.026,0Zm-4.247-.007h0Zm4.326,0h0Zm.079-.007h-.007l.018,0h-.011Zm-4.489,0,.018,0H22.75Zm-.073-.007h0Zm4.641,0h0Zm-6.224-.2a25,25,0,1,1,7.813,0V32.164h5.825l1.108-7.212H28.906v-4.68c0-1.973.969-3.9,4.074-3.9h3.152v-6.14a38.517,38.517,0,0,0-5.6-.487c-5.711,0-9.443,3.454-9.443,9.708v5.5H14.746v7.212h6.348Z" fill="#fff" fill-rule="evenodd" opacity="0.75"/></svg>